<?xml version="1.0" encoding="utf-8"?>
<!-- Generator: Adobe Illustrator 17.0.0, SVG Export Plug-In . SVG Version: 6.00 Build 0)  -->
<!DOCTYPE svg PUBLIC "-//W3C//DTD SVG 1.1//EN" "http://www.w3.org/Graphics/SVG/1.1/DTD/svg11.dtd">
<svg version="1.1" id="Layer_1" xmlns="http://www.w3.org/2000/svg" xmlns:xlink="http://www.w3.org/1999/xlink" x="0px" y="0px"
	 width="841.89px" height="1190.55px" viewBox="0 0 841.89 1190.55" enable-background="new 0 0 841.89 1190.55"
	 xml:space="preserve">
<text transform="matrix(1 0 0 1 -1890.3135 403.4521)"><tspan x="0" y="0" fill="#FFF200" font-family="'Ubuntu-Title'" font-size="172.3949" letter-spacing="12">She</tspan><tspan x="272.551" y="0" fill="#00AEEF" font-family="'Ubuntu-Title'" font-size="172.3949" letter-spacing="12">110</tspan><tspan x="502.003" y="0" fill="#FFF200" font-family="'Ubuntu-Title'" font-size="172.3949" letter-spacing="12">ck</tspan></text>
<g>
	<g>
		<path stroke="#00AEEF" stroke-width="2" stroke-miterlimit="10" d="M-2043.279,345.171c-7.329,17.227-14.236,33.462-21.142,49.697
			c-0.481-0.116-0.963-0.232-1.444-0.349c0.439-7.907,0.523-15.852,1.39-23.712c1.817-16.485,5.229-32.586,11.947-47.921
			c4.708-10.749,10.825-20.39,19.044-28.774c1.215-1.24,2.069-3.51,1.982-5.247c-1.073-21.343,4.92-39.776,22.742-52.688
			c21.052-15.252,48.664-10.011,64.145,11.619c8.823,12.327,11.901,26.183,10.889,41.148c-0.098,1.451,0.238,3.459,1.182,4.373
			c14.072,13.618,21.731,30.699,26.701,49.195c4.574,17.024,6.372,34.411,6.267,52.004c-0.371,0.147-0.743,0.295-1.115,0.442
			c-6.934-16.258-13.869-32.516-21.263-49.854c1.806,22.508,1.254,43.378-11.543,62.06c-9.367-3.894-18.523-4.522-27.682-0.94
			c-9.453,3.696-14.206,11.35-16.755,20.908c-3.03,0-6.037,0-9.292,0c-2.437-9.146-6.923-16.833-16.128-20.626
			c-9.268-3.82-18.55-3.408-28.229,0.656C-2044.616,388.658-2044.946,367.651-2043.279,345.171z M-2002.754,246.02
			c-15.146,11.247-21.346,26.149-20.167,44.441c0.112,1.734,0.12,3.565-0.304,5.229c-1.969,7.728-4.298,15.368-6.147,23.124
			c-3.969,16.648-5.756,33.473-2.146,50.417c3.847,18.054,14.272,30.477,32.733,34.268c7.972,1.637,16.444,1.65,24.633,1.25
			c20.232-0.987,34.733-13.024,39.722-32.681c5.507-21.696,1.792-42.942-3.911-64.015c-1.43-5.285-3.275-10.511-4.091-15.892
			c-0.714-4.706,0.299-9.673-0.409-14.38c-2.163-14.367-9.387-25.516-22.056-33.029
			C-1974.425,259.638-1993.914,256.528-2002.754,246.02z"/>
		<path stroke="#00AEEF" stroke-width="2" stroke-miterlimit="10" d="M-2040.514,427.12c1.504-11.377,11.841-19.069,24.642-18.546
			c12.981,0.53,22.441,8.05,23.18,18.546C-2008.629,427.12-2024.556,427.12-2040.514,427.12z"/>
		<path stroke="#00AEEF" stroke-width="2" stroke-miterlimit="10" d="M-1972.504,427.139c1.542-11.227,10.832-18.485,23.665-18.629
			c12.662-0.142,22.814,7.481,24.162,18.629C-1940.627,427.139-1956.552,427.139-1972.504,427.139z"/>
		<path fill="#FFFFFF" d="M-2002.754,246.02c8.839,10.507,28.328,13.618,37.857-1.268c12.669,7.512,19.772,21.089,21.935,35.456
			c0.709,4.707-0.305,9.674,0.409,14.38c0.816,5.38,2.661,10.607,4.091,15.892c5.703,21.073,9.418,42.319,3.911,64.015
			c-4.99,19.658-19.49,31.694-39.722,32.681c-8.189,0.4-16.661,0.386-24.633-1.25c-18.461-3.79-28.886-16.214-32.733-34.268
			c-3.61-16.944-1.823-33.769,2.146-50.417c1.849-7.755,4.178-15.395,6.147-23.124c0.424-1.664,0.416-3.495,0.304-5.229
			C-2024.22,274.596-2017.9,257.268-2002.754,246.02z"/>
		<path fill="#FFF200" stroke="#000000" stroke-width="4.3" stroke-miterlimit="10" d="M-1995.12,268.685
			c-0.197,2.029-1.207,3.125-3.196,3.147c-1.92,0.021-3.251-1.406-3.098-3.344c0.156-1.993,1.362-2.979,3.281-2.912
			C-1996.164,265.643-1995.21,266.859-1995.12,268.685z"/>
		<path fill="#FFF200" stroke="#000000" stroke-width="4.3" stroke-miterlimit="10" d="M-1965.79,268.685
			c-0.197,2.029-1.207,3.125-3.196,3.147c-1.92,0.021-3.251-1.406-3.098-3.344c0.156-1.993,1.362-2.979,3.281-2.912
			C-1966.834,265.643-1965.88,266.859-1965.79,268.685z"/>
		<path stroke="#00AEEF" stroke-miterlimit="10" d="M-1950.913,287.328c-8.482,5.331-17.166,10.373-25.366,16.108
			c-4.49,3.14-7.864,3.182-12.365,0.087c-8.276-5.692-16.98-10.761-25.897-16.334c3.846-3.652,8.706-3.635,12.953-5.151
			c4.457-1.591,8.932-3.258,13.122-5.427c3.519-1.822,6.418-2.658,10.329-0.601c6.571,3.456,11.178,5.635,17.443,6.872
			c3.312,0.654,6.479,2.044,9.712,3.102C-1950.96,286.432-1950.937,286.88-1950.913,287.328z"/>
	</g>
</g>
</svg>
