<?xml version="1.0" encoding="utf-8"?>
<!-- Generator: Adobe Illustrator 17.0.0, SVG Export Plug-In . SVG Version: 6.00 Build 0)  -->
<!DOCTYPE svg PUBLIC "-//W3C//DTD SVG 1.1//EN" "http://www.w3.org/Graphics/SVG/1.1/DTD/svg11.dtd">
<svg version="1.1" id="Layer_1" xmlns="http://www.w3.org/2000/svg" xmlns:xlink="http://www.w3.org/1999/xlink" x="0px" y="0px"
	 width="841.89px" height="1190.55px" viewBox="0 0 841.89 1190.55" enable-background="new 0 0 841.89 1190.55"
	 xml:space="preserve">
<circle stroke="#00AEEF" stroke-width="3" stroke-miterlimit="10" cx="-2449.144" cy="258.604" r="203.99"/>
<text transform="matrix(1 0 0 1 -2553.3245 389.5693)"><tspan x="0" y="0" fill="#FFF200" font-family="'Ubuntu-Title'" font-size="56.0126" letter-spacing="4">She</tspan><tspan x="88.554" y="0" fill="#00AEEF" font-family="'Ubuntu-Title'" font-size="56.0126" letter-spacing="4">110</tspan><tspan x="163.105" y="0" fill="#FFF200" font-family="'Ubuntu-Title'" font-size="56.0126" letter-spacing="4">ck</tspan></text>
<g>
	<g>
		<path stroke="#00AEEF" stroke-width="2" stroke-miterlimit="10" d="M-2525.024,235.011c-9.183,21.586-17.837,41.927-26.491,62.269
			c-0.603-0.146-1.206-0.291-1.81-0.437c0.55-9.907,0.656-19.863,1.741-29.71c2.277-20.655,6.553-40.83,14.969-60.044
			c5.899-13.468,13.563-25.549,23.862-36.053c1.523-1.553,2.593-4.398,2.483-6.575c-1.345-26.742,6.164-49.839,28.495-66.017
			c26.378-19.11,60.975-12.543,80.372,14.558c11.055,15.446,14.912,32.807,13.644,51.558c-0.123,1.818,0.299,4.335,1.481,5.479
			c17.632,17.063,27.229,38.465,33.456,61.641c5.731,21.331,7.985,43.117,7.852,65.159c-0.466,0.185-0.931,0.369-1.396,0.554
			c-8.688-20.371-17.377-40.742-26.643-62.466c2.263,28.203,1.571,54.352-14.463,77.76c-11.736-4.879-23.209-5.666-34.686-1.178
			c-11.844,4.631-17.799,14.221-20.994,26.198c-3.796,0-7.565,0-11.643,0c-3.054-11.46-8.675-21.091-20.208-25.845
			c-11.613-4.786-23.243-4.271-35.37,0.822C-2526.7,289.499-2527.113,263.177-2525.024,235.011z M-2474.247,110.776
			c-18.978,14.093-26.746,32.764-25.269,55.684c0.14,2.173,0.15,4.467-0.381,6.552c-2.468,9.683-5.386,19.256-7.702,28.973
			c-4.972,20.86-7.213,41.941-2.689,63.172c4.82,22.621,17.883,38.188,41.014,42.937c9.988,2.051,20.604,2.067,30.865,1.567
			c25.35-1.237,43.519-16.319,49.771-40.949c6.9-27.184,2.245-53.806-4.9-80.21c-1.792-6.622-4.104-13.17-5.126-19.912
			c-0.895-5.896,0.375-12.12-0.513-18.018c-2.71-18.001-11.762-31.972-27.635-41.385
			C-2438.752,127.839-2463.171,123.942-2474.247,110.776z"/>
		<path stroke="#00AEEF" stroke-width="2" stroke-miterlimit="10" d="M-2521.559,337.69c1.885-14.255,14.837-23.893,30.876-23.238
			c16.265,0.665,28.118,10.086,29.044,23.238C-2481.608,337.69-2501.565,337.69-2521.559,337.69z"/>
		<path stroke="#00AEEF" stroke-width="2" stroke-miterlimit="10" d="M-2436.344,337.714c1.932-14.067,13.573-23.161,29.651-23.341
			c15.866-0.178,28.586,9.373,30.275,23.341C-2396.403,337.714-2416.357,337.714-2436.344,337.714z"/>
		<path fill="#FFFFFF" d="M-2474.247,110.776c11.076,13.166,35.495,17.063,47.434-1.589c15.874,9.413,24.774,26.425,27.484,44.425
			c0.888,5.898-0.382,12.122,0.513,18.018c1.023,6.742,3.335,13.29,5.127,19.912c7.146,26.404,11.8,53.025,4.9,80.21
			c-6.252,24.63-24.421,39.712-49.771,40.949c-10.26,0.501-20.876,0.484-30.865-1.567c-23.132-4.749-36.194-20.315-41.014-42.937
			c-4.524-21.23-2.284-42.312,2.689-63.172c2.316-9.717,5.234-19.29,7.702-28.973c0.531-2.085,0.521-4.379,0.381-6.552
			C-2501.144,146.581-2493.225,124.869-2474.247,110.776z"/>
		<path fill="#FFF200" stroke="#000000" stroke-width="4.3" stroke-miterlimit="10" d="M-2464.682,139.175
			c-0.247,2.542-1.512,3.916-4.004,3.943c-2.406,0.026-4.073-1.761-3.882-4.19c0.196-2.497,1.707-3.732,4.111-3.649
			C-2465.99,135.363-2464.795,136.887-2464.682,139.175z"/>
		<path fill="#FFF200" stroke="#000000" stroke-width="4.3" stroke-miterlimit="10" d="M-2427.932,139.175
			c-0.247,2.542-1.512,3.916-4.004,3.943c-2.406,0.026-4.073-1.761-3.882-4.19c0.196-2.497,1.707-3.732,4.111-3.649
			C-2429.24,135.363-2428.045,136.887-2427.932,139.175z"/>
		<path stroke="#00AEEF" stroke-miterlimit="10" d="M-2409.292,162.535c-10.628,6.68-21.509,12.998-31.783,20.183
			c-5.626,3.935-9.854,3.988-15.493,0.109c-10.37-7.132-21.276-13.484-32.449-20.467c4.819-4.575,10.908-4.555,16.23-6.455
			c5.584-1.993,11.192-4.082,16.442-6.8c4.409-2.283,8.042-3.331,12.942-0.753c8.233,4.33,14.005,7.06,21.856,8.611
			c4.15,0.82,8.118,2.562,12.168,3.887C-2409.35,161.411-2409.321,161.973-2409.292,162.535z"/>
	</g>
</g>
</svg>
