<?xml version="1.0" encoding="utf-8"?>
<!-- Generator: Adobe Illustrator 17.0.0, SVG Export Plug-In . SVG Version: 6.00 Build 0)  -->
<!DOCTYPE svg PUBLIC "-//W3C//DTD SVG 1.1//EN" "http://www.w3.org/Graphics/SVG/1.1/DTD/svg11.dtd">
<svg version="1.1" id="Layer_1" xmlns="http://www.w3.org/2000/svg" xmlns:xlink="http://www.w3.org/1999/xlink" x="0px" y="0px"
	 width="841.89px" height="1190.55px" viewBox="0 0 841.89 1190.55" enable-background="new 0 0 841.89 1190.55"
	 xml:space="preserve">
<text transform="matrix(1 0 0 1 -1884.3142 394.7159)"><tspan x="0" y="0" fill="#FFF200" font-family="'Ubuntu-Title'" font-size="115" letter-spacing="8">She</tspan><tspan x="181.812" y="0" fill="#00AEEF" font-family="'Ubuntu-Title'" font-size="115" letter-spacing="8">110</tspan><tspan x="334.873" y="0" fill="#FFF200" font-family="'Ubuntu-Title'" font-size="115" letter-spacing="8">ck</tspan></text>
<g>
	<g>
		<path stroke="#00AEEF" stroke-width="2" stroke-miterlimit="10" d="M-1996.615,339.365c-4.949,11.633-9.613,22.596-14.277,33.559
			c-0.325-0.078-0.65-0.157-0.975-0.235c0.296-5.339,0.354-10.705,0.939-16.012c1.227-11.132,3.532-22.005,8.068-32.36
			c3.18-7.258,7.31-13.769,12.86-19.431c0.821-0.837,1.397-2.37,1.338-3.544c-0.725-14.412,3.322-26.861,15.357-35.58
			c14.216-10.299,32.862-6.76,43.316,7.846c5.958,8.325,8.036,17.681,7.353,27.787c-0.066,0.98,0.161,2.336,0.798,2.953
			c9.503,9.196,14.675,20.73,18.031,33.221c3.089,11.496,4.303,23.238,4.232,35.117c-0.251,0.1-0.502,0.199-0.753,0.299
			c-4.683-10.979-9.365-21.958-14.359-33.666c1.22,15.2,0.847,29.293-7.795,41.908c-6.325-2.629-12.508-3.054-18.694-0.635
			c-6.383,2.496-9.593,7.665-11.314,14.119c-2.046,0-4.077,0-6.275,0c-1.646-6.176-4.675-11.367-10.891-13.929
			c-6.259-2.58-12.526-2.302-19.063,0.443C-1997.518,368.731-1997.74,354.545-1996.615,339.365z M-1969.248,272.409
			c-10.228,7.595-14.415,17.658-13.618,30.011c0.076,1.171,0.081,2.408-0.205,3.531c-1.33,5.219-2.903,10.378-4.151,15.615
			c-2.68,11.242-3.887,22.604-1.449,34.046c2.598,12.192,9.638,20.581,22.104,23.141c5.383,1.105,11.104,1.114,16.634,0.844
			c13.662-0.667,23.454-8.795,26.824-22.069c3.719-14.651,1.21-28.998-2.641-43.229c-0.966-3.569-2.212-7.098-2.763-10.732
			c-0.482-3.178,0.202-6.532-0.276-9.711c-1.461-9.702-6.339-17.231-14.894-22.304
			C-1950.119,281.605-1963.279,279.505-1969.248,272.409z"/>
		<path stroke="#00AEEF" stroke-width="2" stroke-miterlimit="10" d="M-1994.747,394.703c1.016-7.683,7.996-12.877,16.64-12.524
			c8.766,0.358,15.154,5.436,15.653,12.524C-1973.216,394.703-1983.971,394.703-1994.747,394.703z"/>
		<path stroke="#00AEEF" stroke-width="2" stroke-miterlimit="10" d="M-1948.821,394.716c1.041-7.581,7.315-12.483,15.98-12.58
			c8.551-0.096,15.406,5.052,16.317,12.58C-1927.295,394.716-1938.049,394.716-1948.821,394.716z"/>
		<path fill="#FFFFFF" d="M-1969.248,272.409c5.969,7.096,19.13,9.196,25.565-0.856c8.555,5.073,13.352,14.241,14.812,23.943
			c0.479,3.179-0.206,6.533,0.276,9.711c0.551,3.633,1.797,7.163,2.763,10.732c3.851,14.23,6.36,28.578,2.641,43.229
			c-3.369,13.275-13.161,21.402-26.824,22.069c-5.53,0.27-11.251,0.261-16.634-0.844c-12.467-2.56-19.506-10.949-22.104-23.141
			c-2.438-11.442-1.231-22.804,1.449-34.046c1.248-5.237,2.821-10.396,4.151-15.615c0.286-1.123,0.281-2.36,0.205-3.531
			C-1983.744,291.706-1979.476,280.004-1969.248,272.409z"/>
		<path fill="#FFF200" stroke="#000000" stroke-width="4.3" stroke-miterlimit="10" d="M-1964.094,287.714
			c-0.133,1.37-0.815,2.111-2.158,2.125c-1.297,0.014-2.195-0.949-2.092-2.258c0.106-1.346,0.92-2.011,2.216-1.967
			C-1964.798,285.66-1964.154,286.481-1964.094,287.714z"/>
		<path fill="#FFF200" stroke="#000000" stroke-width="4.3" stroke-miterlimit="10" d="M-1944.287,287.714
			c-0.133,1.37-0.815,2.111-2.158,2.125c-1.297,0.014-2.195-0.949-2.092-2.258c0.106-1.346,0.92-2.011,2.216-1.967
			C-1944.992,285.66-1944.348,286.481-1944.287,287.714z"/>
		<path stroke="#00AEEF" stroke-miterlimit="10" d="M-1934.241,300.304c-5.728,3.6-11.592,7.005-17.129,10.878
			c-3.032,2.121-5.311,2.149-8.35,0.059c-5.589-3.844-11.467-7.267-17.488-11.03c2.598-2.466,5.879-2.455,8.747-3.479
			c3.01-1.074,6.032-2.2,8.861-3.665c2.376-1.23,4.334-1.795,6.975-0.406c4.437,2.334,7.548,3.805,11.779,4.641
			c2.237,0.442,4.375,1.381,6.558,2.095C-1934.272,299.699-1934.257,300.001-1934.241,300.304z"/>
	</g>
</g>
</svg>
